<mxfile host="app.diagrams.net" agent="Mozilla/5.0 (Macintosh; Intel Mac OS X 10_15_7) AppleWebKit/537.36 (KHTML, like Gecko) Chrome/129.0.0.0 Safari/537.36" version="24.7.17">
  <diagram id="C5RBs43oDa-KdzZeNtuy" name="Page-1">
    <mxGraphModel dx="772" dy="1000" grid="1" gridSize="10" guides="1" tooltips="1" connect="1" arrows="1" fold="1" page="1" pageScale="1" pageWidth="827" pageHeight="1169" math="0" shadow="0">
      <root>
        <mxCell id="WIyWlLk6GJQsqaUBKTNV-0" />
        <mxCell id="WIyWlLk6GJQsqaUBKTNV-1" parent="WIyWlLk6GJQsqaUBKTNV-0" />
        <mxCell id="oK1so5QRf4uIrB1dAsRY-8" style="edgeStyle=orthogonalEdgeStyle;rounded=0;orthogonalLoop=1;jettySize=auto;html=1;exitX=0.5;exitY=1;exitDx=0;exitDy=0;exitPerimeter=0;entryX=0.5;entryY=0;entryDx=0;entryDy=0;" edge="1" parent="WIyWlLk6GJQsqaUBKTNV-1" source="oK1so5QRf4uIrB1dAsRY-0" target="oK1so5QRf4uIrB1dAsRY-1">
          <mxGeometry relative="1" as="geometry" />
        </mxCell>
        <mxCell id="oK1so5QRf4uIrB1dAsRY-0" value="Start" style="strokeWidth=2;html=1;shape=mxgraph.flowchart.terminator;whiteSpace=wrap;" vertex="1" parent="WIyWlLk6GJQsqaUBKTNV-1">
          <mxGeometry x="80" y="40" width="120" height="40" as="geometry" />
        </mxCell>
        <mxCell id="oK1so5QRf4uIrB1dAsRY-9" style="edgeStyle=orthogonalEdgeStyle;rounded=0;orthogonalLoop=1;jettySize=auto;html=1;exitX=0.5;exitY=1;exitDx=0;exitDy=0;entryX=0.5;entryY=0;entryDx=0;entryDy=0;" edge="1" parent="WIyWlLk6GJQsqaUBKTNV-1" source="oK1so5QRf4uIrB1dAsRY-1" target="oK1so5QRf4uIrB1dAsRY-2">
          <mxGeometry relative="1" as="geometry" />
        </mxCell>
        <mxCell id="oK1so5QRf4uIrB1dAsRY-1" value="Create DnDCharacters swordsman, catalyst, and archer" style="whiteSpace=wrap;html=1;" vertex="1" parent="WIyWlLk6GJQsqaUBKTNV-1">
          <mxGeometry x="80" y="120" width="120" height="60" as="geometry" />
        </mxCell>
        <mxCell id="oK1so5QRf4uIrB1dAsRY-10" style="edgeStyle=orthogonalEdgeStyle;rounded=0;orthogonalLoop=1;jettySize=auto;html=1;exitX=0.5;exitY=1;exitDx=0;exitDy=0;entryX=0.5;entryY=0;entryDx=0;entryDy=0;" edge="1" parent="WIyWlLk6GJQsqaUBKTNV-1" source="oK1so5QRf4uIrB1dAsRY-2" target="oK1so5QRf4uIrB1dAsRY-3">
          <mxGeometry relative="1" as="geometry" />
        </mxCell>
        <mxCell id="oK1so5QRf4uIrB1dAsRY-2" value="Print characterName, health, and damage of each DnDCharacter created" style="whiteSpace=wrap;html=1;" vertex="1" parent="WIyWlLk6GJQsqaUBKTNV-1">
          <mxGeometry x="80" y="220" width="120" height="70" as="geometry" />
        </mxCell>
        <mxCell id="oK1so5QRf4uIrB1dAsRY-11" style="edgeStyle=orthogonalEdgeStyle;rounded=0;orthogonalLoop=1;jettySize=auto;html=1;exitX=0.5;exitY=1;exitDx=0;exitDy=0;entryX=0.5;entryY=0;entryDx=0;entryDy=0;" edge="1" parent="WIyWlLk6GJQsqaUBKTNV-1" source="oK1so5QRf4uIrB1dAsRY-3" target="oK1so5QRf4uIrB1dAsRY-4">
          <mxGeometry relative="1" as="geometry" />
        </mxCell>
        <mxCell id="oK1so5QRf4uIrB1dAsRY-3" value="Call battleCharacters method passing two DnDCharacters" style="whiteSpace=wrap;html=1;" vertex="1" parent="WIyWlLk6GJQsqaUBKTNV-1">
          <mxGeometry x="80" y="330" width="120" height="60" as="geometry" />
        </mxCell>
        <mxCell id="oK1so5QRf4uIrB1dAsRY-12" style="edgeStyle=orthogonalEdgeStyle;rounded=0;orthogonalLoop=1;jettySize=auto;html=1;exitX=0.5;exitY=1;exitDx=0;exitDy=0;" edge="1" parent="WIyWlLk6GJQsqaUBKTNV-1" source="oK1so5QRf4uIrB1dAsRY-4" target="oK1so5QRf4uIrB1dAsRY-5">
          <mxGeometry relative="1" as="geometry" />
        </mxCell>
        <mxCell id="oK1so5QRf4uIrB1dAsRY-4" value="Print characterName and health of DnDCharacters passed (char1 and char2)" style="whiteSpace=wrap;html=1;" vertex="1" parent="WIyWlLk6GJQsqaUBKTNV-1">
          <mxGeometry x="80" y="430" width="120" height="80" as="geometry" />
        </mxCell>
        <mxCell id="oK1so5QRf4uIrB1dAsRY-25" style="edgeStyle=orthogonalEdgeStyle;rounded=0;orthogonalLoop=1;jettySize=auto;html=1;exitX=0.5;exitY=1;exitDx=0;exitDy=0;entryX=0.5;entryY=0;entryDx=0;entryDy=0;" edge="1" parent="WIyWlLk6GJQsqaUBKTNV-1" source="oK1so5QRf4uIrB1dAsRY-5" target="oK1so5QRf4uIrB1dAsRY-6">
          <mxGeometry relative="1" as="geometry" />
        </mxCell>
        <mxCell id="oK1so5QRf4uIrB1dAsRY-27" style="edgeStyle=orthogonalEdgeStyle;rounded=0;orthogonalLoop=1;jettySize=auto;html=1;exitX=1;exitY=0.5;exitDx=0;exitDy=0;entryX=0;entryY=0.5;entryDx=0;entryDy=0;" edge="1" parent="WIyWlLk6GJQsqaUBKTNV-1" source="oK1so5QRf4uIrB1dAsRY-5" target="oK1so5QRf4uIrB1dAsRY-28">
          <mxGeometry relative="1" as="geometry">
            <mxPoint x="280" y="609.6666666666667" as="targetPoint" />
          </mxGeometry>
        </mxCell>
        <mxCell id="oK1so5QRf4uIrB1dAsRY-5" value="char1.isAlive() &amp;amp;&amp;amp; char2.isAlive()" style="rhombus;whiteSpace=wrap;html=1;" vertex="1" parent="WIyWlLk6GJQsqaUBKTNV-1">
          <mxGeometry x="80" y="550" width="120" height="120" as="geometry" />
        </mxCell>
        <mxCell id="oK1so5QRf4uIrB1dAsRY-18" style="edgeStyle=orthogonalEdgeStyle;rounded=0;orthogonalLoop=1;jettySize=auto;html=1;exitX=0.5;exitY=1;exitDx=0;exitDy=0;entryX=0.5;entryY=0;entryDx=0;entryDy=0;" edge="1" parent="WIyWlLk6GJQsqaUBKTNV-1" source="oK1so5QRf4uIrB1dAsRY-6" target="oK1so5QRf4uIrB1dAsRY-14">
          <mxGeometry relative="1" as="geometry" />
        </mxCell>
        <mxCell id="oK1so5QRf4uIrB1dAsRY-6" value="Call attack method passing char2 as parameter with char1 as attacker" style="whiteSpace=wrap;html=1;" vertex="1" parent="WIyWlLk6GJQsqaUBKTNV-1">
          <mxGeometry x="80" y="720" width="120" height="60" as="geometry" />
        </mxCell>
        <mxCell id="oK1so5QRf4uIrB1dAsRY-13" value="true" style="text;html=1;align=center;verticalAlign=middle;resizable=0;points=[];autosize=1;strokeColor=none;fillColor=none;" vertex="1" parent="WIyWlLk6GJQsqaUBKTNV-1">
          <mxGeometry x="138" y="680" width="40" height="30" as="geometry" />
        </mxCell>
        <mxCell id="oK1so5QRf4uIrB1dAsRY-17" style="edgeStyle=orthogonalEdgeStyle;rounded=0;orthogonalLoop=1;jettySize=auto;html=1;exitX=0.5;exitY=1;exitDx=0;exitDy=0;entryX=0.5;entryY=0;entryDx=0;entryDy=0;" edge="1" parent="WIyWlLk6GJQsqaUBKTNV-1" source="oK1so5QRf4uIrB1dAsRY-14" target="oK1so5QRf4uIrB1dAsRY-16">
          <mxGeometry relative="1" as="geometry" />
        </mxCell>
        <mxCell id="oK1so5QRf4uIrB1dAsRY-22" style="edgeStyle=orthogonalEdgeStyle;rounded=0;orthogonalLoop=1;jettySize=auto;html=1;exitX=1;exitY=0.5;exitDx=0;exitDy=0;entryX=0;entryY=0.5;entryDx=0;entryDy=0;" edge="1" parent="WIyWlLk6GJQsqaUBKTNV-1" source="oK1so5QRf4uIrB1dAsRY-14" target="oK1so5QRf4uIrB1dAsRY-20">
          <mxGeometry relative="1" as="geometry" />
        </mxCell>
        <mxCell id="oK1so5QRf4uIrB1dAsRY-14" value="char2.isAlive()" style="rhombus;whiteSpace=wrap;html=1;" vertex="1" parent="WIyWlLk6GJQsqaUBKTNV-1">
          <mxGeometry x="80" y="820" width="120" height="120" as="geometry" />
        </mxCell>
        <mxCell id="oK1so5QRf4uIrB1dAsRY-21" style="edgeStyle=orthogonalEdgeStyle;rounded=0;orthogonalLoop=1;jettySize=auto;html=1;exitX=1;exitY=0.5;exitDx=0;exitDy=0;entryX=0.5;entryY=1;entryDx=0;entryDy=0;" edge="1" parent="WIyWlLk6GJQsqaUBKTNV-1" source="oK1so5QRf4uIrB1dAsRY-16" target="oK1so5QRf4uIrB1dAsRY-20">
          <mxGeometry relative="1" as="geometry" />
        </mxCell>
        <mxCell id="oK1so5QRf4uIrB1dAsRY-16" value="Call attack method passing char2 as parameter with cha" style="whiteSpace=wrap;html=1;" vertex="1" parent="WIyWlLk6GJQsqaUBKTNV-1">
          <mxGeometry x="80" y="980" width="120" height="60" as="geometry" />
        </mxCell>
        <mxCell id="oK1so5QRf4uIrB1dAsRY-19" value="true" style="text;html=1;align=center;verticalAlign=middle;resizable=0;points=[];autosize=1;strokeColor=none;fillColor=none;" vertex="1" parent="WIyWlLk6GJQsqaUBKTNV-1">
          <mxGeometry x="140" y="940" width="40" height="30" as="geometry" />
        </mxCell>
        <mxCell id="oK1so5QRf4uIrB1dAsRY-26" style="edgeStyle=orthogonalEdgeStyle;rounded=0;orthogonalLoop=1;jettySize=auto;html=1;exitX=1;exitY=0.5;exitDx=0;exitDy=0;entryX=0;entryY=0.5;entryDx=0;entryDy=0;" edge="1" parent="WIyWlLk6GJQsqaUBKTNV-1" source="oK1so5QRf4uIrB1dAsRY-20" target="oK1so5QRf4uIrB1dAsRY-5">
          <mxGeometry relative="1" as="geometry">
            <Array as="points">
              <mxPoint x="398" y="880" />
              <mxPoint x="398" y="1090" />
              <mxPoint x="40" y="1090" />
              <mxPoint x="40" y="610" />
            </Array>
          </mxGeometry>
        </mxCell>
        <mxCell id="oK1so5QRf4uIrB1dAsRY-20" value="print char1 and char2&#39;s name and health" style="whiteSpace=wrap;html=1;" vertex="1" parent="WIyWlLk6GJQsqaUBKTNV-1">
          <mxGeometry x="260" y="850" width="120" height="60" as="geometry" />
        </mxCell>
        <mxCell id="oK1so5QRf4uIrB1dAsRY-23" value="false" style="text;html=1;align=center;verticalAlign=middle;resizable=0;points=[];autosize=1;strokeColor=none;fillColor=none;" vertex="1" parent="WIyWlLk6GJQsqaUBKTNV-1">
          <mxGeometry x="209" y="850" width="50" height="30" as="geometry" />
        </mxCell>
        <mxCell id="oK1so5QRf4uIrB1dAsRY-32" style="edgeStyle=orthogonalEdgeStyle;rounded=0;orthogonalLoop=1;jettySize=auto;html=1;exitX=0.5;exitY=1;exitDx=0;exitDy=0;entryX=0.5;entryY=0;entryDx=0;entryDy=0;" edge="1" parent="WIyWlLk6GJQsqaUBKTNV-1" source="oK1so5QRf4uIrB1dAsRY-28" target="oK1so5QRf4uIrB1dAsRY-29">
          <mxGeometry relative="1" as="geometry" />
        </mxCell>
        <mxCell id="oK1so5QRf4uIrB1dAsRY-34" style="edgeStyle=orthogonalEdgeStyle;rounded=0;orthogonalLoop=1;jettySize=auto;html=1;exitX=1;exitY=0.5;exitDx=0;exitDy=0;entryX=0;entryY=0.5;entryDx=0;entryDy=0;" edge="1" parent="WIyWlLk6GJQsqaUBKTNV-1" source="oK1so5QRf4uIrB1dAsRY-28" target="oK1so5QRf4uIrB1dAsRY-31">
          <mxGeometry relative="1" as="geometry" />
        </mxCell>
        <mxCell id="oK1so5QRf4uIrB1dAsRY-28" value="char1.isAlive()" style="rhombus;whiteSpace=wrap;html=1;" vertex="1" parent="WIyWlLk6GJQsqaUBKTNV-1">
          <mxGeometry x="440" y="550" width="120" height="120" as="geometry" />
        </mxCell>
        <mxCell id="oK1so5QRf4uIrB1dAsRY-29" value="char1 wins the game" style="whiteSpace=wrap;html=1;" vertex="1" parent="WIyWlLk6GJQsqaUBKTNV-1">
          <mxGeometry x="440" y="720" width="120" height="60" as="geometry" />
        </mxCell>
        <mxCell id="oK1so5QRf4uIrB1dAsRY-31" value="char2 wins the game" style="whiteSpace=wrap;html=1;" vertex="1" parent="WIyWlLk6GJQsqaUBKTNV-1">
          <mxGeometry x="620" y="580" width="120" height="60" as="geometry" />
        </mxCell>
        <mxCell id="oK1so5QRf4uIrB1dAsRY-33" value="true" style="text;html=1;align=center;verticalAlign=middle;resizable=0;points=[];autosize=1;strokeColor=none;fillColor=none;" vertex="1" parent="WIyWlLk6GJQsqaUBKTNV-1">
          <mxGeometry x="500" y="680" width="40" height="30" as="geometry" />
        </mxCell>
        <mxCell id="oK1so5QRf4uIrB1dAsRY-35" value="false" style="text;html=1;align=center;verticalAlign=middle;resizable=0;points=[];autosize=1;strokeColor=none;fillColor=none;" vertex="1" parent="WIyWlLk6GJQsqaUBKTNV-1">
          <mxGeometry x="560" y="580" width="50" height="30" as="geometry" />
        </mxCell>
        <mxCell id="oK1so5QRf4uIrB1dAsRY-36" value="End" style="strokeWidth=2;html=1;shape=mxgraph.flowchart.terminator;whiteSpace=wrap;" vertex="1" parent="WIyWlLk6GJQsqaUBKTNV-1">
          <mxGeometry x="620" y="730" width="120" height="40" as="geometry" />
        </mxCell>
        <mxCell id="oK1so5QRf4uIrB1dAsRY-37" style="edgeStyle=orthogonalEdgeStyle;rounded=0;orthogonalLoop=1;jettySize=auto;html=1;exitX=1;exitY=0.5;exitDx=0;exitDy=0;entryX=0;entryY=0.5;entryDx=0;entryDy=0;entryPerimeter=0;" edge="1" parent="WIyWlLk6GJQsqaUBKTNV-1" source="oK1so5QRf4uIrB1dAsRY-29" target="oK1so5QRf4uIrB1dAsRY-36">
          <mxGeometry relative="1" as="geometry" />
        </mxCell>
        <mxCell id="oK1so5QRf4uIrB1dAsRY-38" style="edgeStyle=orthogonalEdgeStyle;rounded=0;orthogonalLoop=1;jettySize=auto;html=1;exitX=0.5;exitY=1;exitDx=0;exitDy=0;entryX=0.5;entryY=0;entryDx=0;entryDy=0;entryPerimeter=0;" edge="1" parent="WIyWlLk6GJQsqaUBKTNV-1" source="oK1so5QRf4uIrB1dAsRY-31" target="oK1so5QRf4uIrB1dAsRY-36">
          <mxGeometry relative="1" as="geometry" />
        </mxCell>
        <mxCell id="oK1so5QRf4uIrB1dAsRY-39" value="false" style="text;html=1;align=center;verticalAlign=middle;resizable=0;points=[];autosize=1;strokeColor=none;fillColor=none;" vertex="1" parent="WIyWlLk6GJQsqaUBKTNV-1">
          <mxGeometry x="290" y="580" width="50" height="30" as="geometry" />
        </mxCell>
      </root>
    </mxGraphModel>
  </diagram>
</mxfile>
